<svg xmlns="http://www.w3.org/2000/svg" xmlns:xlink="http://www.w3.org/1999/xlink" contentStyleType="text/css" height="473px" preserveAspectRatio="none" style="width:400px;height:473px;background:#FFFFFF;" version="1.1" viewBox="0 0 400 473" width="400px" zoomAndPan="magnify"><defs/><g><!--entity knut--><g id="elem_knut"><polygon fill="#98FB98" points="75.37,16,85.37,6,146.7128,6,146.7128,42.2969,136.7128,52.2969,75.37,52.2969,75.37,16" style="stroke:#008000;stroke-width:0.5;"/><line style="stroke:#008000;stroke-width:0.5;" x1="136.7128" x2="146.7128" y1="16" y2="6"/><line style="stroke:#008000;stroke-width:0.5;" x1="75.37" x2="136.7128" y1="16" y2="16"/><line style="stroke:#008000;stroke-width:0.5;" x1="136.7128" x2="136.7128" y1="16" y2="52.2969"/><text fill="#008000" font-family="sans-serif" font-size="14" lengthAdjust="spacing" textLength="31.3428" x="90.37" y="38.9951">knut</text></g><!--entity gui--><g id="elem_gui"><polygon fill="#F0F8FF" points="80.22,122.29,90.22,112.29,141.8694,112.29,141.8694,148.5869,131.8694,158.5869,80.22,158.5869,80.22,122.29" style="stroke:#0000FF;stroke-width:0.5;"/><line style="stroke:#0000FF;stroke-width:0.5;" x1="131.8694" x2="141.8694" y1="122.29" y2="112.29"/><line style="stroke:#0000FF;stroke-width:0.5;" x1="80.22" x2="131.8694" y1="122.29" y2="122.29"/><line style="stroke:#0000FF;stroke-width:0.5;" x1="131.8694" x2="131.8694" y1="122.29" y2="158.5869"/><text fill="#0000FF" font-family="sans-serif" font-size="14" lengthAdjust="spacing" textLength="21.6494" x="95.22" y="145.2851">gui</text></g><!--entity rcui--><g id="elem_rcui"><polygon fill="#F0F8FF" points="26.93,228.59,36.93,218.59,93.1458,218.59,93.1458,254.8869,83.1458,264.8869,26.93,264.8869,26.93,228.59" style="stroke:#0000FF;stroke-width:0.5;"/><line style="stroke:#0000FF;stroke-width:0.5;" x1="83.1458" x2="93.1458" y1="228.59" y2="218.59"/><line style="stroke:#0000FF;stroke-width:0.5;" x1="26.93" x2="83.1458" y1="228.59" y2="228.59"/><line style="stroke:#0000FF;stroke-width:0.5;" x1="83.1458" x2="83.1458" y1="228.59" y2="264.8869"/><text fill="#0000FF" font-family="sans-serif" font-size="14" lengthAdjust="spacing" textLength="26.2158" x="41.93" y="251.5851">rcui</text></g><!--entity rccore--><g id="elem_rccore"><polygon fill="#F0F8FF" points="16,334.89,26,324.89,100.085,324.89,100.085,361.1869,90.085,371.1869,16,371.1869,16,334.89" style="stroke:#0000FF;stroke-width:0.5;"/><line style="stroke:#0000FF;stroke-width:0.5;" x1="90.085" x2="100.085" y1="334.89" y2="324.89"/><line style="stroke:#0000FF;stroke-width:0.5;" x1="16" x2="90.085" y1="334.89" y2="334.89"/><line style="stroke:#0000FF;stroke-width:0.5;" x1="90.085" x2="90.085" y1="334.89" y2="371.1869"/><text fill="#0000FF" font-family="sans-serif" font-size="14" lengthAdjust="spacing" textLength="44.085" x="31" y="357.8851">rccore</text></g><!--entity core--><g id="elem_core"><polygon fill="#F0F8FF" points="128.73,228.59,138.73,218.59,199.3618,218.59,199.3618,254.8869,189.3618,264.8869,128.73,264.8869,128.73,228.59" style="stroke:#0000FF;stroke-width:0.5;"/><line style="stroke:#0000FF;stroke-width:0.5;" x1="189.3618" x2="199.3618" y1="228.59" y2="218.59"/><line style="stroke:#0000FF;stroke-width:0.5;" x1="128.73" x2="189.3618" y1="228.59" y2="228.59"/><line style="stroke:#0000FF;stroke-width:0.5;" x1="189.3618" x2="189.3618" y1="228.59" y2="264.8869"/><text fill="#0000FF" font-family="sans-serif" font-size="14" lengthAdjust="spacing" textLength="30.6318" x="143.73" y="251.5851">core</text></g><!--entity lsp--><g id="elem_lsp"><polygon fill="#F0F8FF" points="135.01,334.89,145.01,324.89,195.0803,324.89,195.0803,361.1869,185.0803,371.1869,135.01,371.1869,135.01,334.89" style="stroke:#0000FF;stroke-width:0.5;"/><line style="stroke:#0000FF;stroke-width:0.5;" x1="185.0803" x2="195.0803" y1="334.89" y2="324.89"/><line style="stroke:#0000FF;stroke-width:0.5;" x1="135.01" x2="185.0803" y1="334.89" y2="334.89"/><line style="stroke:#0000FF;stroke-width:0.5;" x1="185.0803" x2="185.0803" y1="334.89" y2="371.1869"/><text fill="#0000FF" font-family="sans-serif" font-size="14" lengthAdjust="spacing" textLength="20.0703" x="150.01" y="357.8851">lsp</text></g><!--entity treesittercpp--><g id="elem_treesittercpp"><polygon fill="#F0F8FF" points="230.24,334.89,240.24,324.89,383.8533,324.89,383.8533,361.1869,373.8533,371.1869,230.24,371.1869,230.24,334.89" style="stroke:#0000FF;stroke-width:0.5;"/><line style="stroke:#0000FF;stroke-width:0.5;" x1="373.8533" x2="383.8533" y1="334.89" y2="324.89"/><line style="stroke:#0000FF;stroke-width:0.5;" x1="230.24" x2="373.8533" y1="334.89" y2="334.89"/><line style="stroke:#0000FF;stroke-width:0.5;" x1="373.8533" x2="373.8533" y1="334.89" y2="371.1869"/><text fill="#0000FF" font-family="sans-serif" font-size="14" lengthAdjust="spacing" textLength="113.6133" x="245.24" y="357.8851">treesitter (C++)</text></g><!--entity treesitter--><g id="elem_treesitter"><rect fill="#FFC0CB" height="36.2969" rx="35" ry="35" style="stroke:#FF0000;stroke-width:2.0;" width="85.0029" x="264.54" y="431.18"/><text fill="#FF0000" font-family="sans-serif" font-size="14" lengthAdjust="spacing" textLength="65.0029" x="274.54" y="454.1751">treesitter</text></g><!--entity clangd--><g id="elem_clangd"><rect fill="#FFC0CB" height="36.2969" rx="35" ry="35" style="stroke:#FF0000;stroke-width:2.0;" width="66.8125" x="131.64" y="431.18"/><text fill="#FF0000" font-family="sans-serif" font-size="14" lengthAdjust="spacing" textLength="46.8125" x="141.64" y="454.1751">clangd</text></g><!--link knut to gui--><g id="link_knut_gui"><path d="M111.04,52.77 C111.04,70.27 111.04,86.37 111.04,103.85 " fill="none" id="knut-to-gui" style="stroke:#181818;stroke-width:1.0;"/><polygon fill="#181818" points="111.04,111.85,114.04,103.85,108.04,103.85,111.04,111.85" style="stroke:#181818;stroke-width:1.0;"/></g><!--link gui to rcui--><g id="link_gui_rcui"><path d="M99.98,159.07 C91.42,176.57 83.1551,193.4836 74.6051,210.9636 " fill="none" id="gui-to-rcui" style="stroke:#181818;stroke-width:1.0;"/><polygon fill="#181818" points="71.09,218.15,77.3,212.2818,71.9102,209.6455,71.09,218.15" style="stroke:#181818;stroke-width:1.0;"/></g><!--link gui to core--><g id="link_gui_core"><path d="M122.54,159.07 C131.43,176.57 140.0567,193.5376 148.9367,211.0176 " fill="none" id="gui-to-core" style="stroke:#181818;stroke-width:1.0;"/><polygon fill="#181818" points="152.56,218.15,151.6113,209.6588,146.262,212.3763,152.56,218.15" style="stroke:#181818;stroke-width:1.0;"/></g><!--link rcui to rccore--><g id="link_rcui_rccore"><path d="M59.61,265.37 C59.27,282.86 58.961,298.9714 58.631,316.4514 " fill="none" id="rcui-to-rccore" style="stroke:#181818;stroke-width:1.0;"/><polygon fill="#181818" points="58.48,324.45,61.6305,316.5081,55.6315,316.3948,58.48,324.45" style="stroke:#181818;stroke-width:1.0;"/></g><!--link core to lsp--><g id="link_core_lsp"><path d="M164.26,265.37 C164.43,282.86 164.5822,298.9704 164.7522,316.4504 " fill="none" id="core-to-lsp" style="stroke:#181818;stroke-width:1.0;"/><polygon fill="#181818" points="164.83,324.45,167.7521,316.4212,161.7523,316.4796,164.83,324.45" style="stroke:#181818;stroke-width:1.0;"/></g><!--link core to rccore--><g id="link_core_rccore"><path d="M141.04,265.37 C123.26,282.86 104.4732,301.3599 86.7032,318.8399 " fill="none" id="core-to-rccore" style="stroke:#181818;stroke-width:1.0;"/><polygon fill="#181818" points="81,324.45,88.807,320.9786,84.5994,316.7012,81,324.45" style="stroke:#181818;stroke-width:1.0;"/></g><!--link core to treesittercpp--><g id="link_core_treesittercpp"><path d="M195.07,265.37 C219.06,282.86 245.6362,302.2563 269.6062,319.7363 " fill="none" id="core-to-treesittercpp" style="stroke:#181818;stroke-width:1.0;"/><polygon fill="#181818" points="276.07,324.45,271.3738,317.3124,267.8385,322.1602,276.07,324.45" style="stroke:#181818;stroke-width:1.0;"/></g><!--link treesittercpp to treesitter--><g id="link_treesittercpp_treesitter"><path d="M307.04,371.57 C307.04,389.53 307.04,408.34 307.04,424.83 " fill="none" id="treesittercpp-to-treesitter" style="stroke:#181818;stroke-width:1.0;"/><polygon fill="#181818" points="307.04,430.83,311.04,421.83,307.04,425.83,303.04,421.83,307.04,430.83" style="stroke:#181818;stroke-width:1.0;"/></g><!--link lsp to clangd--><g id="link_lsp_clangd"><path d="M165.04,371.57 C165.04,389.53 165.04,408.34 165.04,424.83 " fill="none" id="lsp-to-clangd" style="stroke:#181818;stroke-width:1.0;"/><polygon fill="#181818" points="165.04,430.83,169.04,421.83,165.04,425.83,161.04,421.83,165.04,430.83" style="stroke:#181818;stroke-width:1.0;"/></g><!--SRC=[ZP512iCW44NtdaAIJKj83z12DZs9qK4aeg86UlmwOsYITb5tV_uyFyaVvnNmnQsPzq5Oq170FQnnSAyomojNoHoYUZMy5zP8cEqAbIH58AhAHTaCIX-X2Mq6RGfDN2x_bKpE46K8N2JUxGw_F8VXsltBITb7eOzHNpab8HYtrCSH58dRxAsgASNwX4Whd5OD3-XWupXDU0-6Dw41Izydh8lH7ROb6LGY6QMbm_IpFfN3pbKLuB1ds3TQzVlV]--></g></svg>