<svg xmlns="http://www.w3.org/2000/svg" xmlns:xlink="http://www.w3.org/1999/xlink" contentStyleType="text/css" height="473px" preserveAspectRatio="none" style="width:397px;height:473px;background:#FFFFFF;" version="1.1" viewBox="0 0 397 473" width="397px" zoomAndPan="magnify"><defs/><g><!--entity knut--><g id="elem_knut"><polygon fill="#98FB98" points="75.5,16,85.5,6,146.5,6,146.5,42.2969,136.5,52.2969,75.5,52.2969,75.5,16" style="stroke:#008000;stroke-width:0.5;"/><line style="stroke:#008000;stroke-width:0.5;" x1="136.5" x2="146.5" y1="16" y2="6"/><line style="stroke:#008000;stroke-width:0.5;" x1="75.5" x2="136.5" y1="16" y2="16"/><line style="stroke:#008000;stroke-width:0.5;" x1="136.5" x2="136.5" y1="16" y2="52.2969"/><text fill="#008000" font-family="sans-serif" font-size="14" lengthAdjust="spacing" textLength="31" x="90.5" y="38.9951">knut</text></g><!--entity gui--><g id="elem_gui"><polygon fill="#F0F8FF" points="80.5,122.29,90.5,112.29,141.5,112.29,141.5,148.5869,131.5,158.5869,80.5,158.5869,80.5,122.29" style="stroke:#0000FF;stroke-width:0.5;"/><line style="stroke:#0000FF;stroke-width:0.5;" x1="131.5" x2="141.5" y1="122.29" y2="112.29"/><line style="stroke:#0000FF;stroke-width:0.5;" x1="80.5" x2="131.5" y1="122.29" y2="122.29"/><line style="stroke:#0000FF;stroke-width:0.5;" x1="131.5" x2="131.5" y1="122.29" y2="158.5869"/><text fill="#0000FF" font-family="sans-serif" font-size="14" lengthAdjust="spacing" textLength="21" x="95.5" y="145.2851">gui</text></g><!--entity rcui--><g id="elem_rcui"><polygon fill="#F0F8FF" points="27.5,228.59,37.5,218.59,92.5,218.59,92.5,254.8869,82.5,264.8869,27.5,264.8869,27.5,228.59" style="stroke:#0000FF;stroke-width:0.5;"/><line style="stroke:#0000FF;stroke-width:0.5;" x1="82.5" x2="92.5" y1="228.59" y2="218.59"/><line style="stroke:#0000FF;stroke-width:0.5;" x1="27.5" x2="82.5" y1="228.59" y2="228.59"/><line style="stroke:#0000FF;stroke-width:0.5;" x1="82.5" x2="82.5" y1="228.59" y2="264.8869"/><text fill="#0000FF" font-family="sans-serif" font-size="14" lengthAdjust="spacing" textLength="25" x="42.5" y="251.5851">rcui</text></g><!--entity rccore--><g id="elem_rccore"><polygon fill="#F0F8FF" points="16,334.89,26,324.89,100,324.89,100,361.1869,90,371.1869,16,371.1869,16,334.89" style="stroke:#0000FF;stroke-width:0.5;"/><line style="stroke:#0000FF;stroke-width:0.5;" x1="90" x2="100" y1="334.89" y2="324.89"/><line style="stroke:#0000FF;stroke-width:0.5;" x1="16" x2="90" y1="334.89" y2="334.89"/><line style="stroke:#0000FF;stroke-width:0.5;" x1="90" x2="90" y1="334.89" y2="371.1869"/><text fill="#0000FF" font-family="sans-serif" font-size="14" lengthAdjust="spacing" textLength="44" x="31" y="357.8851">rccore</text></g><!--entity core--><g id="elem_core"><polygon fill="#F0F8FF" points="128.5,228.59,138.5,218.59,199.5,218.59,199.5,254.8869,189.5,264.8869,128.5,264.8869,128.5,228.59" style="stroke:#0000FF;stroke-width:0.5;"/><line style="stroke:#0000FF;stroke-width:0.5;" x1="189.5" x2="199.5" y1="228.59" y2="218.59"/><line style="stroke:#0000FF;stroke-width:0.5;" x1="128.5" x2="189.5" y1="228.59" y2="228.59"/><line style="stroke:#0000FF;stroke-width:0.5;" x1="189.5" x2="189.5" y1="228.59" y2="264.8869"/><text fill="#0000FF" font-family="sans-serif" font-size="14" lengthAdjust="spacing" textLength="31" x="143.5" y="251.5851">core</text></g><!--entity lsp--><g id="elem_lsp"><polygon fill="#F0F8FF" points="135,334.89,145,324.89,195,324.89,195,361.1869,185,371.1869,135,371.1869,135,334.89" style="stroke:#0000FF;stroke-width:0.5;"/><line style="stroke:#0000FF;stroke-width:0.5;" x1="185" x2="195" y1="334.89" y2="324.89"/><line style="stroke:#0000FF;stroke-width:0.5;" x1="135" x2="185" y1="334.89" y2="334.89"/><line style="stroke:#0000FF;stroke-width:0.5;" x1="185" x2="185" y1="334.89" y2="371.1869"/><text fill="#0000FF" font-family="sans-serif" font-size="14" lengthAdjust="spacing" textLength="20" x="150" y="357.8851">lsp</text></g><!--entity treesittercpp--><g id="elem_treesittercpp"><polygon fill="#F0F8FF" points="229.5,334.89,239.5,324.89,380.5,324.89,380.5,361.1869,370.5,371.1869,229.5,371.1869,229.5,334.89" style="stroke:#0000FF;stroke-width:0.5;"/><line style="stroke:#0000FF;stroke-width:0.5;" x1="370.5" x2="380.5" y1="334.89" y2="324.89"/><line style="stroke:#0000FF;stroke-width:0.5;" x1="229.5" x2="370.5" y1="334.89" y2="334.89"/><line style="stroke:#0000FF;stroke-width:0.5;" x1="370.5" x2="370.5" y1="334.89" y2="371.1869"/><text fill="#0000FF" font-family="sans-serif" font-size="14" lengthAdjust="spacing" textLength="111" x="244.5" y="357.8851">treesitter (C++)</text></g><!--entity treesitter--><g id="elem_treesitter"><rect fill="#FFC0CB" height="36.2969" rx="35" ry="35" style="stroke:#FF0000;stroke-width:2.0;" width="83" x="263.5" y="431.18"/><text fill="#FF0000" font-family="sans-serif" font-size="14" lengthAdjust="spacing" textLength="63" x="273.5" y="454.1751">treesitter</text></g><!--entity clangd--><g id="elem_clangd"><rect fill="#FFC0CB" height="36.2969" rx="35" ry="35" style="stroke:#FF0000;stroke-width:2.0;" width="66" x="132" y="431.18"/><text fill="#FF0000" font-family="sans-serif" font-size="14" lengthAdjust="spacing" textLength="46" x="142" y="454.1751">clangd</text></g><!--link knut to gui--><g id="link_knut_gui"><path d="M111,52.77 C111,70.27 111,86.37 111,103.85 " fill="none" id="knut-to-gui" style="stroke:#181818;stroke-width:1.0;"/><polygon fill="#181818" points="111,111.85,114,103.85,108,103.85,111,111.85" style="stroke:#181818;stroke-width:1.0;"/></g><!--link gui to rcui--><g id="link_gui_rcui"><path d="M99.93,159.07 C91.38,176.57 83.1051,193.4836 74.5551,210.9636 " fill="none" id="gui-to-rcui" style="stroke:#181818;stroke-width:1.0;"/><polygon fill="#181818" points="71.04,218.15,77.25,212.2818,71.8602,209.6455,71.04,218.15" style="stroke:#181818;stroke-width:1.0;"/></g><!--link gui to core--><g id="link_gui_core"><path d="M122.5,159.07 C131.39,176.57 140.0167,193.5376 148.8967,211.0176 " fill="none" id="gui-to-core" style="stroke:#181818;stroke-width:1.0;"/><polygon fill="#181818" points="152.52,218.15,151.5713,209.6588,146.222,212.3763,152.52,218.15" style="stroke:#181818;stroke-width:1.0;"/></g><!--link rcui to rccore--><g id="link_rcui_rccore"><path d="M59.57,265.37 C59.23,282.86 58.9256,298.9715 58.5856,316.4515 " fill="none" id="rcui-to-rccore" style="stroke:#181818;stroke-width:1.0;"/><polygon fill="#181818" points="58.43,324.45,61.585,316.5099,55.5861,316.3932,58.43,324.45" style="stroke:#181818;stroke-width:1.0;"/></g><!--link core to lsp--><g id="link_core_lsp"><path d="M164.22,265.37 C164.38,282.86 164.5468,298.9703 164.7068,316.4503 " fill="none" id="core-to-lsp" style="stroke:#181818;stroke-width:1.0;"/><polygon fill="#181818" points="164.78,324.45,167.7067,316.4229,161.7069,316.4778,164.78,324.45" style="stroke:#181818;stroke-width:1.0;"/></g><!--link core to rccore--><g id="link_core_rccore"><path d="M141,265.37 C123.22,282.86 104.4216,301.3583 86.6616,318.8383 " fill="none" id="core-to-rccore" style="stroke:#181818;stroke-width:1.0;"/><polygon fill="#181818" points="80.96,324.45,88.766,320.9764,84.5572,316.7002,80.96,324.45" style="stroke:#181818;stroke-width:1.0;"/></g><!--link core to treesittercpp--><g id="link_core_treesittercpp"><path d="M194.59,265.37 C218.25,282.86 244.3985,302.2123 268.0285,319.6923 " fill="none" id="core-to-treesittercpp" style="stroke:#181818;stroke-width:1.0;"/><polygon fill="#181818" points="274.46,324.45,269.8126,317.2805,266.2443,322.1042,274.46,324.45" style="stroke:#181818;stroke-width:1.0;"/></g><!--link treesittercpp to treesitter--><g id="link_treesittercpp_treesitter"><path d="M305,371.57 C305,389.53 305,408.34 305,424.83 " fill="none" id="treesittercpp-to-treesitter" style="stroke:#181818;stroke-width:1.0;"/><polygon fill="#181818" points="305,430.83,309,421.83,305,425.83,301,421.83,305,430.83" style="stroke:#181818;stroke-width:1.0;"/></g><!--link lsp to clangd--><g id="link_lsp_clangd"><path d="M165,371.57 C165,389.53 165,408.34 165,424.83 " fill="none" id="lsp-to-clangd" style="stroke:#181818;stroke-width:1.0;"/><polygon fill="#181818" points="165,430.83,169,421.83,165,425.83,161,421.83,165,430.83" style="stroke:#181818;stroke-width:1.0;"/></g><!--SRC=[ZP512iCW44NtdaAIJKj83z12DZs9qK4aeg86UlmwOsYITb5tV_uyFyaVvnNmnQsPzq5Oq170FQnnSAyomojNoHoYUZMy5zP8cEqAbIH58AhAHTaCIX-X2Mq6RGfDN2x_bKpE46K8N2JUxGw_F8VXsltBITb7eOzHNpab8HYtrCSH58dRxAsgASNwX4Whd5OD3-XWupXDU0-6Dw41Izydh8lH7ROb6LGY6QMbm_IpFfN3pbKLuB1ds3TQzVlV]--></g></svg>