<svg xmlns="http://www.w3.org/2000/svg" xmlns:xlink="http://www.w3.org/1999/xlink" contentStyleType="text/css" height="313px" preserveAspectRatio="none" style="width:663px;height:313px;background:#FFFFFF;" version="1.1" viewBox="0 0 663 313" width="663px" zoomAndPan="magnify"><defs/><g><!--cluster project--><g id="cluster_project"><path d="M8.5,6 L65.3291,6 A3.75,3.75 0 0 1 67.8291,8.5 L74.8291,28.2969 L653.5,28.2969 A2.5,2.5 0 0 1 656,30.7969 L656,210.8 A2.5,2.5 0 0 1 653.5,213.3 L8.5,213.3 A2.5,2.5 0 0 1 6,210.8 L6,8.5 A2.5,2.5 0 0 1 8.5,6 " fill="none" style="stroke:#000000;stroke-width:1.5;"/><line style="stroke:#000000;stroke-width:1.5;" x1="6" x2="74.8291" y1="28.2969" y2="28.2969"/><text fill="#000000" font-family="sans-serif" font-size="14" font-weight="bold" lengthAdjust="spacing" textLength="55.8291" x="10" y="20.9951">project</text></g><!--cluster source--><g id="cluster_source"><path d="M32.5,49 L86.1162,49 A3.75,3.75 0 0 1 88.6162,51.5 L95.6162,71.2969 L525.5,71.2969 A2.5,2.5 0 0 1 528,73.7969 L528,186.8 A2.5,2.5 0 0 1 525.5,189.3 L32.5,189.3 A2.5,2.5 0 0 1 30,186.8 L30,51.5 A2.5,2.5 0 0 1 32.5,49 " fill="none" style="stroke:#000000;stroke-width:1.5;"/><line style="stroke:#000000;stroke-width:1.5;" x1="30" x2="95.6162" y1="71.2969" y2="71.2969"/><text fill="#000000" font-family="sans-serif" font-size="14" font-weight="bold" lengthAdjust="spacing" textLength="52.6162" x="34" y="63.9951">source</text></g><!--cluster cpp--><g id="cluster_cpp"><path d="M54,94.5 L54,162.8 A2.5,2.5 0 0 0 56.5,165.3 L191.5,165.3 A2.5,2.5 0 0 0 194,162.8 L194,102 L184,92 L56.5,92 A2.5,2.5 0 0 0 54,94.5 " fill="none" style="stroke:#181818;stroke-width:1.0;"/><path d="M184,92 L184,99.5 A2.5,2.5 0 0 0 186.5,102 L194,102 " fill="none" style="stroke:#181818;stroke-width:1.0;"/><text fill="#000000" font-family="sans-serif" font-size="14" font-weight="bold" lengthAdjust="spacing" textLength="28.3418" x="109.8291" y="106.9951">cpp</text></g><!--cluster h--><g id="cluster_h"><path d="M218,94.5 L218,162.8 A2.5,2.5 0 0 0 220.5,165.3 L355.5,165.3 A2.5,2.5 0 0 0 358,162.8 L358,102 L348,92 L220.5,92 A2.5,2.5 0 0 0 218,94.5 " fill="none" style="stroke:#181818;stroke-width:1.0;"/><path d="M348,92 L348,99.5 A2.5,2.5 0 0 0 350.5,102 L358,102 " fill="none" style="stroke:#181818;stroke-width:1.0;"/><text fill="#000000" font-family="sans-serif" font-size="14" font-weight="bold" lengthAdjust="spacing" textLength="9.9668" x="283.0166" y="106.9951">h</text></g><!--cluster ui--><g id="cluster_ui"><path d="M382,94.5 L382,162.8 A2.5,2.5 0 0 0 384.5,165.3 L501.5,165.3 A2.5,2.5 0 0 0 504,162.8 L504,102 L494,92 L384.5,92 A2.5,2.5 0 0 0 382,94.5 " fill="none" style="stroke:#181818;stroke-width:1.0;"/><path d="M494,92 L494,99.5 A2.5,2.5 0 0 0 496.5,102 L504,102 " fill="none" style="stroke:#181818;stroke-width:1.0;"/><text fill="#000000" font-family="sans-serif" font-size="14" font-weight="bold" lengthAdjust="spacing" textLength="14.7656" x="435.6172" y="106.9951">ui</text></g><!--entity projectAPI--><g id="elem_projectAPI"><rect fill="#F1F1F1" height="22.2969" rx="2.5" ry="2.5" style="stroke:#181818;stroke-width:0.5;" width="95.0518" x="544.47" y="127"/><text fill="#000000" font-family="sans-serif" font-size="14" lengthAdjust="spacing" textLength="75.0518" x="554.47" y="142.9951">Project API</text></g><!--entity cppAPI--><g id="elem_cppAPI"><rect fill="#F1F1F1" height="22.2969" rx="2.5" ry="2.5" style="stroke:#181818;stroke-width:0.5;" width="108.7305" x="69.63" y="127"/><text fill="#000000" font-family="sans-serif" font-size="14" lengthAdjust="spacing" textLength="88.7305" x="79.63" y="142.9951">C++ File API</text></g><!--entity hAPI--><g id="elem_hAPI"><rect fill="#F1F1F1" height="22.2969" rx="2.5" ry="2.5" style="stroke:#181818;stroke-width:0.5;" width="108.7305" x="233.63" y="127"/><text fill="#000000" font-family="sans-serif" font-size="14" lengthAdjust="spacing" textLength="88.7305" x="243.63" y="142.9951">C++ File API</text></g><!--entity uiAPI--><g id="elem_uiAPI"><rect fill="#F1F1F1" height="22.2969" rx="2.5" ry="2.5" style="stroke:#181818;stroke-width:0.5;" width="89.8701" x="398.06" y="127"/><text fill="#000000" font-family="sans-serif" font-size="14" lengthAdjust="spacing" textLength="69.8701" x="408.06" y="142.9951">UI File API</text></g><!--entity script--><g id="elem_script"><path d="M294.4,231.8 L294.4,303.6906 A2.5,2.5 0 0 0 296.9,306.1906 L433.0943,306.1906 A2.5,2.5 0 0 0 435.5943,303.6906 L435.5943,239.3 L425.5943,229.3 L296.9,229.3 A2.5,2.5 0 0 0 294.4,231.8 " fill="#F1F1F1" style="stroke:#181818;stroke-width:0.5;"/><path d="M425.5943,229.3 L425.5943,236.8 A2.5,2.5 0 0 0 428.0943,239.3 L435.5943,239.3 " fill="#F1F1F1" style="stroke:#181818;stroke-width:0.5;"/><text fill="#000000" font-family="sans-serif" font-size="14" lengthAdjust="spacing" textLength="39.0127" x="304.4" y="252.2951">script</text><line style="stroke:#181818;stroke-width:1.0;" x1="295.4" x2="434.5943" y1="255.5969" y2="255.5969"/><text fill="#000000" font-family="sans-serif" font-size="14" lengthAdjust="spacing" textLength="121.1943" x="304.4" y="272.592">Use Project, C++</text><text fill="#000000" font-family="sans-serif" font-size="14" lengthAdjust="spacing" textLength="79.0576" x="304.4" y="288.8889">and UI APIs</text></g><!--reverse link projectAPI to script--><g id="link_projectAPI_script"><path codeLine="29" d="M579.504,154.3684 C564.894,171.7084 537.47,201.53 504,221.3 C483.12,233.63 458.48,243.09 435.78,250.09 " fill="none" id="projectAPI-backto-script" style="stroke:#181818;stroke-width:1.0;"/><polygon fill="#181818" points="583.37,149.78,574.512,154.0853,580.1483,153.6037,580.6299,159.24,583.37,149.78" style="stroke:#181818;stroke-width:1.0;"/></g><!--reverse link cppAPI to script--><g id="link_cppAPI_script"><path codeLine="30" d="M137.1207,153.9745 C152.8007,171.2645 182.61,201.55 218,221.3 C241.44,234.38 269.13,244.2 294.13,251.29 " fill="none" id="cppAPI-backto-script" style="stroke:#181818;stroke-width:1.0;"/><polygon fill="#181818" points="133.09,149.53,136.173,158.8839,136.4489,153.2338,142.099,153.5097,133.09,149.53" style="stroke:#181818;stroke-width:1.0;"/></g><!--reverse link hAPI to script--><g id="link_hAPI_script"><path codeLine="31" d="M297.4015,154.7262 C307.7515,171.8662 325.72,201.66 342.18,228.94 " fill="none" id="hAPI-backto-script" style="stroke:#181818;stroke-width:1.0;"/><polygon fill="#181818" points="294.3,149.59,295.5281,159.362,296.8846,153.8702,302.3764,155.2266,294.3,149.59" style="stroke:#181818;stroke-width:1.0;"/></g><!--reverse link uiAPI to script--><g id="link_uiAPI_script"><path codeLine="32" d="M433.4901,154.709 C423.0101,171.849 404.79,201.66 388.11,228.94 " fill="none" id="uiAPI-backto-script" style="stroke:#181818;stroke-width:1.0;"/><polygon fill="#181818" points="436.62,149.59,428.5125,155.1818,434.0117,153.8558,435.3378,159.355,436.62,149.59" style="stroke:#181818;stroke-width:1.0;"/></g><!--SRC=[XOyn3iCW34Ltdy9xGa_GfOfKALkMJ56721n15HK4OOfwzxe46Z7Lapz-t_uiTbNaqNdx9BdX3ejP2OEDNj95EiSlSlOAkRqD_GHTq-3zYx221xmhNXTQ_sUZAN0qYHxx6awpd2i1GyvOWBnEUkCsdE1eG73160WptYB7WFcba0-mDR0NphLN8RBn-E6fTQLIo9_y0000]--></g></svg>