<svg xmlns="http://www.w3.org/2000/svg" xmlns:xlink="http://www.w3.org/1999/xlink" contentStyleType="text/css" height="313px" preserveAspectRatio="none" style="width:653px;height:313px;background:#FFFFFF;" version="1.1" viewBox="0 0 653 313" width="653px" zoomAndPan="magnify"><defs/><g><!--cluster project--><g id="cluster_project"><path d="M8.5,6 L65.5,6 A3.75,3.75 0 0 1 68,8.5 L75,28.2969 L643.5,28.2969 A2.5,2.5 0 0 1 646,30.7969 L646,210.8 A2.5,2.5 0 0 1 643.5,213.3 L8.5,213.3 A2.5,2.5 0 0 1 6,210.8 L6,8.5 A2.5,2.5 0 0 1 8.5,6 " fill="none" style="stroke:#000000;stroke-width:1.5;"/><line style="stroke:#000000;stroke-width:1.5;" x1="6" x2="75" y1="28.2969" y2="28.2969"/><text fill="#000000" font-family="sans-serif" font-size="14" font-weight="bold" lengthAdjust="spacing" textLength="56" x="10" y="20.9951">project</text></g><!--cluster source--><g id="cluster_source"><path d="M32.5,49 L88.5,49 A3.75,3.75 0 0 1 91,51.5 L98,71.2969 L517.5,71.2969 A2.5,2.5 0 0 1 520,73.7969 L520,186.8 A2.5,2.5 0 0 1 517.5,189.3 L32.5,189.3 A2.5,2.5 0 0 1 30,186.8 L30,51.5 A2.5,2.5 0 0 1 32.5,49 " fill="none" style="stroke:#000000;stroke-width:1.5;"/><line style="stroke:#000000;stroke-width:1.5;" x1="30" x2="98" y1="71.2969" y2="71.2969"/><text fill="#000000" font-family="sans-serif" font-size="14" font-weight="bold" lengthAdjust="spacing" textLength="55" x="34" y="63.9951">source</text></g><!--cluster cpp--><g id="cluster_cpp"><path d="M54,94.5 L54,162.8 A2.5,2.5 0 0 0 56.5,165.3 L189.5,165.3 A2.5,2.5 0 0 0 192,162.8 L192,102 L182,92 L56.5,92 A2.5,2.5 0 0 0 54,94.5 " fill="none" style="stroke:#181818;stroke-width:1.0;"/><path d="M182,92 L182,99.5 A2.5,2.5 0 0 0 184.5,102 L192,102 " fill="none" style="stroke:#181818;stroke-width:1.0;"/><text fill="#000000" font-family="sans-serif" font-size="14" font-weight="bold" lengthAdjust="spacing" textLength="29" x="108.5" y="106.9951">cpp</text></g><!--cluster h--><g id="cluster_h"><path d="M216,94.5 L216,162.8 A2.5,2.5 0 0 0 218.5,165.3 L351.5,165.3 A2.5,2.5 0 0 0 354,162.8 L354,102 L344,92 L218.5,92 A2.5,2.5 0 0 0 216,94.5 " fill="none" style="stroke:#181818;stroke-width:1.0;"/><path d="M344,92 L344,99.5 A2.5,2.5 0 0 0 346.5,102 L354,102 " fill="none" style="stroke:#181818;stroke-width:1.0;"/><text fill="#000000" font-family="sans-serif" font-size="14" font-weight="bold" lengthAdjust="spacing" textLength="10" x="280" y="106.9951">h</text></g><!--cluster ui--><g id="cluster_ui"><path d="M378,94.5 L378,162.8 A2.5,2.5 0 0 0 380.5,165.3 L493.5,165.3 A2.5,2.5 0 0 0 496,162.8 L496,102 L486,92 L380.5,92 A2.5,2.5 0 0 0 378,94.5 " fill="none" style="stroke:#181818;stroke-width:1.0;"/><path d="M486,92 L486,99.5 A2.5,2.5 0 0 0 488.5,102 L496,102 " fill="none" style="stroke:#181818;stroke-width:1.0;"/><text fill="#000000" font-family="sans-serif" font-size="14" font-weight="bold" lengthAdjust="spacing" textLength="14" x="430" y="106.9951">ui</text></g><!--entity projectAPI--><g id="elem_projectAPI"><rect fill="#F1F1F1" height="22.2969" rx="2.5" ry="2.5" style="stroke:#181818;stroke-width:0.5;" width="93" x="536.5" y="127"/><text fill="#000000" font-family="sans-serif" font-size="14" lengthAdjust="spacing" textLength="73" x="546.5" y="142.9951">Project API</text></g><!--entity cppAPI--><g id="elem_cppAPI"><rect fill="#F1F1F1" height="22.2969" rx="2.5" ry="2.5" style="stroke:#181818;stroke-width:0.5;" width="106" x="70" y="127"/><text fill="#000000" font-family="sans-serif" font-size="14" lengthAdjust="spacing" textLength="86" x="80" y="142.9951">C++ File API</text></g><!--entity hAPI--><g id="elem_hAPI"><rect fill="#F1F1F1" height="22.2969" rx="2.5" ry="2.5" style="stroke:#181818;stroke-width:0.5;" width="106" x="232" y="127"/><text fill="#000000" font-family="sans-serif" font-size="14" lengthAdjust="spacing" textLength="86" x="242" y="142.9951">C++ File API</text></g><!--entity uiAPI--><g id="elem_uiAPI"><rect fill="#F1F1F1" height="22.2969" rx="2.5" ry="2.5" style="stroke:#181818;stroke-width:0.5;" width="85" x="394.5" y="127"/><text fill="#000000" font-family="sans-serif" font-size="14" lengthAdjust="spacing" textLength="65" x="404.5" y="142.9951">UI File API</text></g><!--entity script--><g id="elem_script"><path d="M290.5,231.8 L290.5,303.6906 A2.5,2.5 0 0 0 293,306.1906 L429,306.1906 A2.5,2.5 0 0 0 431.5,303.6906 L431.5,239.3 L421.5,229.3 L293,229.3 A2.5,2.5 0 0 0 290.5,231.8 " fill="#F1F1F1" style="stroke:#181818;stroke-width:0.5;"/><path d="M421.5,229.3 L421.5,236.8 A2.5,2.5 0 0 0 424,239.3 L431.5,239.3 " fill="#F1F1F1" style="stroke:#181818;stroke-width:0.5;"/><text fill="#000000" font-family="sans-serif" font-size="14" lengthAdjust="spacing" textLength="38" x="300.5" y="252.2951">script</text><line style="stroke:#181818;stroke-width:1.0;" x1="291.5" x2="430.5" y1="255.5969" y2="255.5969"/><text fill="#000000" font-family="sans-serif" font-size="14" lengthAdjust="spacing" textLength="121" x="300.5" y="272.592">Use Project, C++</text><text fill="#000000" font-family="sans-serif" font-size="14" lengthAdjust="spacing" textLength="76" x="300.5" y="288.8889">and UI APIs</text></g><!--reverse link projectAPI to script--><g id="link_projectAPI_script"><path codeLine="29" d="M570.6268,154.3676 C556.1968,171.6676 529.13,201.41 496,221.3 C476.39,233.07 453.32,242.27 431.86,249.22 " fill="none" id="projectAPI-backto-script" style="stroke:#181818;stroke-width:1.0;"/><polygon fill="#181818" points="574.47,149.76,565.6335,154.1092,571.2673,153.5997,571.7769,159.2335,574.47,149.76" style="stroke:#181818;stroke-width:1.0;"/></g><!--reverse link cppAPI to script--><g id="link_cppAPI_script"><path codeLine="30" d="M135.9835,153.989 C151.4635,171.269 180.91,201.51 216,221.3 C238.86,234.2 265.86,243.93 290.32,251.02 " fill="none" id="cppAPI-backto-script" style="stroke:#181818;stroke-width:1.0;"/><polygon fill="#181818" points="131.98,149.52,135.0059,158.8925,135.3162,153.2442,140.9646,153.5545,131.98,149.52" style="stroke:#181818;stroke-width:1.0;"/></g><!--reverse link hAPI to script--><g id="link_hAPI_script"><path codeLine="31" d="M294.2906,154.7447 C304.5006,171.8847 322.23,201.66 338.48,228.94 " fill="none" id="hAPI-backto-script" style="stroke:#181818;stroke-width:1.0;"/><polygon fill="#181818" points="291.22,149.59,292.3894,159.3692,293.7788,153.8856,299.2624,155.2751,291.22,149.59" style="stroke:#181818;stroke-width:1.0;"/></g><!--reverse link uiAPI to script--><g id="link_uiAPI_script"><path codeLine="32" d="M427.7094,154.7447 C417.4994,171.8847 399.77,201.66 383.52,228.94 " fill="none" id="uiAPI-backto-script" style="stroke:#181818;stroke-width:1.0;"/><polygon fill="#181818" points="430.78,149.59,422.7376,155.2751,428.2212,153.8856,429.6106,159.3692,430.78,149.59" style="stroke:#181818;stroke-width:1.0;"/></g><!--SRC=[XOyn3iCW34Ltdy9xGa_GfOfKALkMJ56721n15HK4OOfwzxe46Z7Lapz-t_uiTbNaqNdx9BdX3ejP2OEDNj95EiSlSlOAkRqD_GHTq-3zYx221xmhNXTQ_sUZAN0qYHxx6awpd2i1GyvOWBnEUkCsdE1eG73160WptYB7WFcba0-mDR0NphLN8RBn-E6fTQLIo9_y0000]--></g></svg>