<svg xmlns="http://www.w3.org/2000/svg" xmlns:xlink="http://www.w3.org/1999/xlink" contentStyleType="text/css" height="803px" preserveAspectRatio="none" style="width:798px;height:803px;background:#FFFFFF;" version="1.1" viewBox="0 0 798 803" width="798px" zoomAndPan="magnify"><defs/><g><!--class Project--><g id="elem_Project"><rect codeLine="1" fill="#F1F1F1" height="129.4844" id="Project" rx="2.5" ry="2.5" style="stroke:#181818;stroke-width:0.5;" width="283" x="495.5" y="7"/><ellipse cx="608.75" cy="23" fill="#ADD1B2" rx="11" ry="11" style="stroke:#181818;stroke-width:1.0;"/><path d="M611.7188,28.6406 Q611.1406,28.9375 610.5,29.0781 Q609.8594,29.2344 609.1563,29.2344 Q606.6563,29.2344 605.3281,27.5938 Q604.0156,25.9375 604.0156,22.8125 Q604.0156,19.6875 605.3281,18.0313 Q606.6563,16.375 609.1563,16.375 Q609.8594,16.375 610.5,16.5313 Q611.1563,16.6875 611.7188,16.9844 L611.7188,19.7031 Q611.0938,19.125 610.5,18.8594 Q609.9063,18.5781 609.2813,18.5781 Q607.9375,18.5781 607.25,19.6563 Q606.5625,20.7188 606.5625,22.8125 Q606.5625,24.9063 607.25,25.9844 Q607.9375,27.0469 609.2813,27.0469 Q609.9063,27.0469 610.5,26.7813 Q611.0938,26.5 611.7188,25.9219 L611.7188,28.6406 Z " fill="#000000"/><text fill="#000000" font-family="sans-serif" font-size="14" lengthAdjust="spacing" textLength="48" x="629.25" y="27.8467">Project</text><line style="stroke:#181818;stroke-width:0.5;" x1="496.5" x2="777.5" y1="39" y2="39"/><text fill="#000000" font-family="sans-serif" font-size="14" lengthAdjust="spacing" textLength="250" x="501.5" y="55.9951">vector&lt;Document*&gt; m_documents</text><text fill="#000000" font-family="sans-serif" font-size="14" lengthAdjust="spacing" textLength="271" x="501.5" y="72.292">hash&lt;type, Lsp::CLient*&gt; m_lspClients</text><line style="stroke:#181818;stroke-width:0.5;" x1="496.5" x2="777.5" y1="79.5938" y2="79.5938"/><text fill="#000000" font-family="sans-serif" font-size="14" lengthAdjust="spacing" textLength="138" x="501.5" y="96.5889">bool setRoot(string)</text><text fill="#000000" font-family="sans-serif" font-size="14" lengthAdjust="spacing" textLength="169" x="501.5" y="112.8857">Document* open(string)</text><text fill="#000000" font-family="sans-serif" font-size="14" lengthAdjust="spacing" textLength="156" x="501.5" y="129.1826">Document* get(string)</text></g><!--class Document--><g id="elem_Document"><rect codeLine="8" fill="#F1F1F1" height="113.1875" id="Document" rx="2.5" ry="2.5" style="stroke:#181818;stroke-width:0.5;" width="144" x="408" y="196.48"/><ellipse cx="440.55" cy="212.48" fill="#A9DCDF" rx="11" ry="11" style="stroke:#181818;stroke-width:1.0;"/><path d="M440.6594,207.8238 L439.5031,212.9019 L441.8313,212.9019 L440.6594,207.8238 Z M439.175,205.5894 L442.1594,205.5894 L445.5188,217.98 L443.0656,217.98 L442.3,214.9175 L439.0188,214.9175 L438.2688,217.98 L435.8313,217.98 L439.175,205.5894 Z " fill="#000000"/><text fill="#000000" font-family="sans-serif" font-size="14" font-style="italic" lengthAdjust="spacing" textLength="73" x="458.45" y="217.3267">Document</text><line style="stroke:#181818;stroke-width:0.5;" x1="409" x2="551" y1="228.48" y2="228.48"/><line style="stroke:#181818;stroke-width:0.5;" x1="409" x2="551" y1="236.48" y2="236.48"/><text fill="#000000" font-family="sans-serif" font-size="14" lengthAdjust="spacing" textLength="112" x="414" y="253.4751">bool load(string)</text><text fill="#000000" font-family="sans-serif" font-size="14" lengthAdjust="spacing" textLength="76" x="414" y="269.772">bool save()</text><text fill="#000000" font-family="sans-serif" font-size="14" lengthAdjust="spacing" textLength="132" x="414" y="286.0689">bool saveAs(string)</text><text fill="#000000" font-family="sans-serif" font-size="14" lengthAdjust="spacing" textLength="79" x="414" y="302.3657">void close()</text></g><!--class TextDocument--><g id="elem_TextDocument"><rect codeLine="14" fill="#F1F1F1" height="96.8906" id="TextDocument" rx="2.5" ry="2.5" style="stroke:#181818;stroke-width:0.5;" width="206" x="7" y="369.67"/><ellipse cx="54.25" cy="385.67" fill="#ADD1B2" rx="11" ry="11" style="stroke:#181818;stroke-width:1.0;"/><path d="M57.2188,391.3106 Q56.6406,391.6075 56,391.7481 Q55.3594,391.9044 54.6563,391.9044 Q52.1563,391.9044 50.8281,390.2637 Q49.5156,388.6075 49.5156,385.4825 Q49.5156,382.3575 50.8281,380.7012 Q52.1563,379.045 54.6563,379.045 Q55.3594,379.045 56,379.2012 Q56.6563,379.3575 57.2188,379.6544 L57.2188,382.3731 Q56.5938,381.795 56,381.5294 Q55.4063,381.2481 54.7813,381.2481 Q53.4375,381.2481 52.75,382.3262 Q52.0625,383.3887 52.0625,385.4825 Q52.0625,387.5762 52.75,388.6544 Q53.4375,389.7169 54.7813,389.7169 Q55.4063,389.7169 56,389.4512 Q56.5938,389.17 57.2188,388.5919 L57.2188,391.3106 Z " fill="#000000"/><text fill="#000000" font-family="sans-serif" font-size="14" lengthAdjust="spacing" textLength="103" x="74.75" y="390.5167">TextDocument</text><line style="stroke:#181818;stroke-width:0.5;" x1="8" x2="212" y1="401.67" y2="401.67"/><text fill="#000000" font-family="sans-serif" font-size="14" lengthAdjust="spacing" textLength="194" x="13" y="418.6651">QPlainTextEdit m_document</text><line style="stroke:#181818;stroke-width:0.5;" x1="8" x2="212" y1="425.9669" y2="425.9669"/><text fill="#000000" font-family="sans-serif" font-size="14" lengthAdjust="spacing" textLength="79" x="13" y="442.962">string text()</text><text fill="#000000" font-family="sans-serif" font-size="14" lengthAdjust="spacing" textLength="131" x="13" y="459.2589">string currentLine()</text></g><!--class UiDocument--><g id="elem_UiDocument"><rect codeLine="19" fill="#F1F1F1" height="48" id="UiDocument" rx="2.5" ry="2.5" style="stroke:#181818;stroke-width:0.5;" width="118" x="248" y="394.12"/><ellipse cx="263" cy="410.12" fill="#ADD1B2" rx="11" ry="11" style="stroke:#181818;stroke-width:1.0;"/><path d="M265.9688,415.7606 Q265.3906,416.0575 264.75,416.1981 Q264.1094,416.3544 263.4063,416.3544 Q260.9063,416.3544 259.5781,414.7138 Q258.2656,413.0575 258.2656,409.9325 Q258.2656,406.8075 259.5781,405.1513 Q260.9063,403.495 263.4063,403.495 Q264.1094,403.495 264.75,403.6513 Q265.4063,403.8075 265.9688,404.1044 L265.9688,406.8231 Q265.3438,406.245 264.75,405.9794 Q264.1563,405.6981 263.5313,405.6981 Q262.1875,405.6981 261.5,406.7763 Q260.8125,407.8388 260.8125,409.9325 Q260.8125,412.0263 261.5,413.1044 Q262.1875,414.1669 263.5313,414.1669 Q264.1563,414.1669 264.75,413.9013 Q265.3438,413.62 265.9688,413.0419 L265.9688,415.7606 Z " fill="#000000"/><text fill="#000000" font-family="sans-serif" font-size="14" lengthAdjust="spacing" textLength="86" x="277" y="414.9667">UiDocument</text><line style="stroke:#181818;stroke-width:0.5;" x1="249" x2="365" y1="426.12" y2="426.12"/><line style="stroke:#181818;stroke-width:0.5;" x1="249" x2="365" y1="434.12" y2="434.12"/></g><!--class RcDocument--><g id="elem_RcDocument"><rect codeLine="20" fill="#F1F1F1" height="64.2969" id="RcDocument" rx="2.5" ry="2.5" style="stroke:#181818;stroke-width:0.5;" width="159" x="400.5" y="385.97"/><ellipse cx="431.7" cy="401.97" fill="#ADD1B2" rx="11" ry="11" style="stroke:#181818;stroke-width:1.0;"/><path d="M434.6688,407.6106 Q434.0906,407.9075 433.45,408.0481 Q432.8094,408.2044 432.1063,408.2044 Q429.6063,408.2044 428.2781,406.5637 Q426.9656,404.9075 426.9656,401.7825 Q426.9656,398.6575 428.2781,397.0012 Q429.6063,395.345 432.1063,395.345 Q432.8094,395.345 433.45,395.5012 Q434.1063,395.6575 434.6688,395.9544 L434.6688,398.6731 Q434.0438,398.095 433.45,397.8294 Q432.8563,397.5481 432.2313,397.5481 Q430.8875,397.5481 430.2,398.6262 Q429.5125,399.6887 429.5125,401.7825 Q429.5125,403.8762 430.2,404.9544 Q430.8875,406.0169 432.2313,406.0169 Q432.8563,406.0169 433.45,405.7512 Q434.0438,405.47 434.6688,404.8919 L434.6688,407.6106 Z " fill="#000000"/><text fill="#000000" font-family="sans-serif" font-size="14" lengthAdjust="spacing" textLength="91" x="449.3" y="406.8167">RcDocument</text><line style="stroke:#181818;stroke-width:0.5;" x1="401.5" x2="558.5" y1="417.97" y2="417.97"/><text fill="#000000" font-family="sans-serif" font-size="14" lengthAdjust="spacing" textLength="147" x="406.5" y="434.9651">RcCore::Data m_data</text><line style="stroke:#181818;stroke-width:0.5;" x1="401.5" x2="558.5" y1="442.2669" y2="442.2669"/></g><!--class RcCore::Data--><g id="elem_RcCore::Data"><rect codeLine="23" fill="#F1F1F1" height="48" id="RcCore::Data" rx="2.5" ry="2.5" style="stroke:#181818;stroke-width:0.5;" width="125" x="417.5" y="559.16"/><ellipse cx="432.5" cy="575.16" fill="#ADD1B2" rx="11" ry="11" style="stroke:#181818;stroke-width:1.0;"/><path d="M435.4688,580.8006 Q434.8906,581.0975 434.25,581.2381 Q433.6094,581.3944 432.9063,581.3944 Q430.4063,581.3944 429.0781,579.7538 Q427.7656,578.0975 427.7656,574.9725 Q427.7656,571.8475 429.0781,570.1913 Q430.4063,568.535 432.9063,568.535 Q433.6094,568.535 434.25,568.6913 Q434.9063,568.8475 435.4688,569.1444 L435.4688,571.8631 Q434.8438,571.285 434.25,571.0194 Q433.6563,570.7381 433.0313,570.7381 Q431.6875,570.7381 431,571.8163 Q430.3125,572.8788 430.3125,574.9725 Q430.3125,577.0663 431,578.1444 Q431.6875,579.2069 433.0313,579.2069 Q433.6563,579.2069 434.25,578.9413 Q434.8438,578.66 435.4688,578.0819 L435.4688,580.8006 Z " fill="#000000"/><text fill="#000000" font-family="sans-serif" font-size="14" lengthAdjust="spacing" textLength="93" x="446.5" y="580.0067">RcCore::Data</text><line style="stroke:#181818;stroke-width:0.5;" x1="418.5" x2="541.5" y1="591.16" y2="591.16"/><line style="stroke:#181818;stroke-width:0.5;" x1="418.5" x2="541.5" y1="599.16" y2="599.16"/></g><!--class ImageDocument--><g id="elem_ImageDocument"><rect codeLine="24" fill="#F1F1F1" height="48" id="ImageDocument" rx="2.5" ry="2.5" style="stroke:#181818;stroke-width:0.5;" width="147" x="594.5" y="394.12"/><ellipse cx="609.5" cy="410.12" fill="#ADD1B2" rx="11" ry="11" style="stroke:#181818;stroke-width:1.0;"/><path d="M612.4688,415.7606 Q611.8906,416.0575 611.25,416.1981 Q610.6094,416.3544 609.9063,416.3544 Q607.4063,416.3544 606.0781,414.7138 Q604.7656,413.0575 604.7656,409.9325 Q604.7656,406.8075 606.0781,405.1513 Q607.4063,403.495 609.9063,403.495 Q610.6094,403.495 611.25,403.6513 Q611.9063,403.8075 612.4688,404.1044 L612.4688,406.8231 Q611.8438,406.245 611.25,405.9794 Q610.6563,405.6981 610.0313,405.6981 Q608.6875,405.6981 608,406.7763 Q607.3125,407.8388 607.3125,409.9325 Q607.3125,412.0263 608,413.1044 Q608.6875,414.1669 610.0313,414.1669 Q610.6563,414.1669 611.25,413.9013 Q611.8438,413.62 612.4688,413.0419 L612.4688,415.7606 Z " fill="#000000"/><text fill="#000000" font-family="sans-serif" font-size="14" lengthAdjust="spacing" textLength="115" x="623.5" y="414.9667">ImageDocument</text><line style="stroke:#181818;stroke-width:0.5;" x1="595.5" x2="740.5" y1="426.12" y2="426.12"/><line style="stroke:#181818;stroke-width:0.5;" x1="595.5" x2="740.5" y1="434.12" y2="434.12"/></g><!--class CodeDocument--><g id="elem_CodeDocument"><rect codeLine="25" fill="#F1F1F1" height="113.1875" id="CodeDocument" rx="2.5" ry="2.5" style="stroke:#181818;stroke-width:0.5;" width="265" x="47.5" y="526.56"/><ellipse cx="120.75" cy="542.56" fill="#ADD1B2" rx="11" ry="11" style="stroke:#181818;stroke-width:1.0;"/><path d="M123.7188,548.2006 Q123.1406,548.4975 122.5,548.6381 Q121.8594,548.7944 121.1563,548.7944 Q118.6563,548.7944 117.3281,547.1538 Q116.0156,545.4975 116.0156,542.3725 Q116.0156,539.2475 117.3281,537.5913 Q118.6563,535.935 121.1563,535.935 Q121.8594,535.935 122.5,536.0913 Q123.1563,536.2475 123.7188,536.5444 L123.7188,539.2631 Q123.0938,538.685 122.5,538.4194 Q121.9063,538.1381 121.2813,538.1381 Q119.9375,538.1381 119.25,539.2163 Q118.5625,540.2788 118.5625,542.3725 Q118.5625,544.4663 119.25,545.5444 Q119.9375,546.6069 121.2813,546.6069 Q121.9063,546.6069 122.5,546.3413 Q123.0938,546.06 123.7188,545.4819 L123.7188,548.2006 Z " fill="#000000"/><text fill="#000000" font-family="sans-serif" font-size="14" lengthAdjust="spacing" textLength="110" x="141.25" y="547.4067">CodeDocument</text><line style="stroke:#181818;stroke-width:0.5;" x1="48.5" x2="311.5" y1="558.56" y2="558.56"/><text fill="#000000" font-family="sans-serif" font-size="14" lengthAdjust="spacing" textLength="141" x="53.5" y="575.5551">Lsp::Client* m_client</text><text fill="#000000" font-family="sans-serif" font-size="14" lengthAdjust="spacing" textLength="253" x="53.5" y="591.852">TreeSitterHelper *m_treeSitterHelper</text><line style="stroke:#181818;stroke-width:0.5;" x1="48.5" x2="311.5" y1="599.1538" y2="599.1538"/><text fill="#000000" font-family="sans-serif" font-size="14" lengthAdjust="spacing" textLength="188" x="53.5" y="616.1489">vector&lt;Symbol&gt; symbols()</text><text fill="#000000" font-family="sans-serif" font-size="14" lengthAdjust="spacing" textLength="242" x="53.5" y="632.4457">vector&lt;QueryMatch&gt; query(string)</text></g><!--class CppDocument--><g id="elem_CppDocument"><rect codeLine="31" fill="#F1F1F1" height="80.5938" id="CppDocument" rx="2.5" ry="2.5" style="stroke:#181818;stroke-width:0.5;" width="269" x="45.5" y="707.9"/><ellipse cx="125.25" cy="723.9" fill="#ADD1B2" rx="11" ry="11" style="stroke:#181818;stroke-width:1.0;"/><path d="M128.2188,729.5406 Q127.6406,729.8375 127,729.9781 Q126.3594,730.1344 125.6563,730.1344 Q123.1563,730.1344 121.8281,728.4938 Q120.5156,726.8375 120.5156,723.7125 Q120.5156,720.5875 121.8281,718.9313 Q123.1563,717.275 125.6563,717.275 Q126.3594,717.275 127,717.4313 Q127.6563,717.5875 128.2188,717.8844 L128.2188,720.6031 Q127.5938,720.025 127,719.7594 Q126.4063,719.4781 125.7813,719.4781 Q124.4375,719.4781 123.75,720.5563 Q123.0625,721.6188 123.0625,723.7125 Q123.0625,725.8063 123.75,726.8844 Q124.4375,727.9469 125.7813,727.9469 Q126.4063,727.9469 127,727.6813 Q127.5938,727.4 128.2188,726.8219 L128.2188,729.5406 Z " fill="#000000"/><text fill="#000000" font-family="sans-serif" font-size="14" lengthAdjust="spacing" textLength="101" x="145.75" y="728.7467">CppDocument</text><line style="stroke:#181818;stroke-width:0.5;" x1="46.5" x2="313.5" y1="739.9" y2="739.9"/><line style="stroke:#181818;stroke-width:0.5;" x1="46.5" x2="313.5" y1="747.9" y2="747.9"/><text fill="#000000" font-family="sans-serif" font-size="14" lengthAdjust="spacing" textLength="105" x="51.5" y="764.8951">bool isHeader()</text><text fill="#000000" font-family="sans-serif" font-size="14" lengthAdjust="spacing" textLength="257" x="51.5" y="781.192">CppDocument* openHeaderSource()</text></g><!--class Lsp::Client--><g id="elem_Lsp::Client"><rect codeLine="35" fill="#F1F1F1" height="96.8906" id="Lsp::Client" rx="2.5" ry="2.5" style="stroke:#181818;stroke-width:0.5;" width="203" x="486.5" y="699.75"/><ellipse cx="547.25" cy="715.75" fill="#ADD1B2" rx="11" ry="11" style="stroke:#181818;stroke-width:1.0;"/><path d="M550.2188,721.3906 Q549.6406,721.6875 549,721.8281 Q548.3594,721.9844 547.6563,721.9844 Q545.1563,721.9844 543.8281,720.3438 Q542.5156,718.6875 542.5156,715.5625 Q542.5156,712.4375 543.8281,710.7813 Q545.1563,709.125 547.6563,709.125 Q548.3594,709.125 549,709.2813 Q549.6563,709.4375 550.2188,709.7344 L550.2188,712.4531 Q549.5938,711.875 549,711.6094 Q548.4063,711.3281 547.7813,711.3281 Q546.4375,711.3281 545.75,712.4063 Q545.0625,713.4688 545.0625,715.5625 Q545.0625,717.6563 545.75,718.7344 Q546.4375,719.7969 547.7813,719.7969 Q548.4063,719.7969 549,719.5313 Q549.5938,719.25 550.2188,718.6719 L550.2188,721.3906 Z " fill="#000000"/><text fill="#000000" font-family="sans-serif" font-size="14" lengthAdjust="spacing" textLength="73" x="567.75" y="720.5967">Lsp::Client</text><line style="stroke:#181818;stroke-width:0.5;" x1="487.5" x2="688.5" y1="731.75" y2="731.75"/><line style="stroke:#181818;stroke-width:0.5;" x1="487.5" x2="688.5" y1="739.75" y2="739.75"/><text fill="#000000" font-family="sans-serif" font-size="14" lengthAdjust="spacing" textLength="165" x="492.5" y="756.7451">void openProject(string)</text><text fill="#000000" font-family="sans-serif" font-size="14" lengthAdjust="spacing" textLength="166" x="492.5" y="773.042">void closeProject(string)</text><text fill="#000000" font-family="sans-serif" font-size="14" lengthAdjust="spacing" textLength="191" x="492.5" y="789.3389">Result documentSymbol(...)</text></g><!--reverse link Project to Document--><g id="link_Project_Document"><path codeLine="41" d="M572.8573,146.0103 C555.9673,165.3103 545.48,177.29 529.08,196.01 " fill="none" id="Project-backto-Document" style="stroke:#181818;stroke-width:1.0;"/><polygon fill="none" points="580.76,136.98,573.7985,138.8609,572.8573,146.0103,579.8188,144.1294,580.76,136.98" style="stroke:#181818;stroke-width:1.0;"/></g><!--reverse link Document to TextDocument--><g id="link_Document_TextDocument"><path codeLine="42" d="M391.3087,293.1592 C335.8987,317.5792 275.12,344.36 213.19,371.65 " fill="none" id="Document-backto-TextDocument" style="stroke:#181818;stroke-width:1.0;"/><polygon fill="none" points="407.78,285.9,388.889,287.6687,393.7284,298.6496,407.78,285.9" style="stroke:#181818;stroke-width:1.0;"/></g><!--reverse link Document to UiDocument--><g id="link_Document_UiDocument"><path codeLine="43" d="M407.8502,322.0749 C377.3102,350.8549 354.77,372.09 331.6,393.94 " fill="none" id="Document-backto-UiDocument" style="stroke:#181818;stroke-width:1.0;"/><polygon fill="none" points="420.95,309.73,403.7353,317.7083,411.9652,326.4415,420.95,309.73" style="stroke:#181818;stroke-width:1.0;"/></g><!--reverse link Document to RcDocument--><g id="link_Document_RcDocument"><path codeLine="44" d="M480,327.73 C480,353.19 480,364.41 480,385.93 " fill="none" id="Document-backto-RcDocument" style="stroke:#181818;stroke-width:1.0;"/><polygon fill="none" points="480,309.73,474,327.73,486,327.73,480,309.73" style="stroke:#181818;stroke-width:1.0;"/></g><!--reverse link RcDocument to RcCore::Data--><g id="link_RcDocument_RcCore::Data"><path codeLine="45" d="M480,462.55 C480,494.2 480,530.29 480,558.73 " fill="none" id="RcDocument-backto-RcCore::Data" style="stroke:#181818;stroke-width:1.0;"/><polygon fill="none" points="480,450.55,476,456.55,480,462.55,484,456.55,480,450.55" style="stroke:#181818;stroke-width:1.0;"/></g><!--reverse link Document to ImageDocument--><g id="link_Document_ImageDocument"><path codeLine="46" d="M558.0381,321.7537 C591.1981,350.5137 616.23,372.22 641.35,394 " fill="none" id="Document-backto-ImageDocument" style="stroke:#181818;stroke-width:1.0;"/><polygon fill="none" points="544.44,309.96,554.1068,326.2864,561.9693,317.2211,544.44,309.96" style="stroke:#181818;stroke-width:1.0;"/></g><!--reverse link TextDocument to CodeDocument--><g id="link_TextDocument_CodeDocument"><path codeLine="47" d="M137.5413,483.25 C145.5313,501.86 147.65,506.8 155.96,526.15 " fill="none" id="TextDocument-backto-CodeDocument" style="stroke:#181818;stroke-width:1.0;"/><polygon fill="none" points="130.44,466.71,132.0279,485.6171,143.0546,480.8829,130.44,466.71" style="stroke:#181818;stroke-width:1.0;"/></g><!--reverse link CodeDocument to CppDocument--><g id="link_CodeDocument_CppDocument"><path codeLine="48" d="M180,657.81 C180,680.04 180,687.14 180,707.47 " fill="none" id="CodeDocument-backto-CppDocument" style="stroke:#181818;stroke-width:1.0;"/><polygon fill="none" points="180,639.81,174,657.81,186,657.81,180,639.81" style="stroke:#181818;stroke-width:1.0;"/></g><!--reverse link Project to Lsp::Client--><g id="link_Project_Lsp::Client"><path codeLine="49" d="M686.6101,147.1521 C733.7001,224.8421 791.83,349.58 759,466.56 C733.72,556.65 670.65,646.48 628.58,699.42 " fill="none" id="Project-backto-Lsp::Client" style="stroke:#181818;stroke-width:1.0;"/><polygon fill="none" points="680.39,136.89,680.0794,144.0944,686.6101,147.1521,686.9207,139.9477,680.39,136.89" style="stroke:#181818;stroke-width:1.0;"/></g><!--reverse link CodeDocument to Lsp::Client--><g id="link_CodeDocument_Lsp::Client"><path codeLine="50" d="M323.8928,641.654 C380.1828,664.154 433.61,685.5 486.06,706.46 " fill="none" id="CodeDocument-backto-Lsp::Client" style="stroke:#181818;stroke-width:1.0;"/><polygon fill="#181818" points="312.75,637.2,316.8368,643.1412,323.8928,641.654,319.8061,635.7127,312.75,637.2" style="stroke:#181818;stroke-width:1.0;"/></g><!--SRC=[RLBRRi8m37tFL-IHLHiVK26a2IOnYKbGs3CAgGMPqhfBKZIqyUzBUiEfU8hZOnzVZgKMrlADmI-GZl-oYt_Gp9Oewm9AbynvSSYxZsLdOSypTwtWcQzjbQQBjUg3jAqMMZLHHqJDBRWCqKsiCweyFR61aMC5vGFt2Ux1DoQEtXQ-9Taqs8Vv3XjsZI8VejjwuW8JOh_Q0R-WoZqFsX1mOotZ7duSOTrkj51bSBxbof6XMSl2dOTyUlUJjJ4UNAkISdwgdh5pP9AKoEG23QJfKZWH2lXdoAHOvteln0b6V0lCWJ2s6ZHRJpoZR2osDm0xvHoO5UWA34-AWnlvUfrtr-A8Uivjyre_ImTiQp3N3-7aUSw_WqsqwNgfgh4gogv0v60y3K5RnLjaXxMHT6LaX71zGQaGtHta0md7I0QsrextShK3JQRJQQZ1-iF6bvVXXeQRuxC_xwQ7C8A8dZ5mrvKHYR51Y91nKYneT7yDJiLbaT8jVDzeD1RPO9oLnE0_]--></g></svg>