<svg xmlns="http://www.w3.org/2000/svg" xmlns:xlink="http://www.w3.org/1999/xlink" contentStyleType="text/css" height="803px" preserveAspectRatio="none" style="width:809px;height:803px;background:#FFFFFF;" version="1.1" viewBox="0 0 809 803" width="809px" zoomAndPan="magnify"><defs/><g><!--class Project--><g id="elem_Project"><rect codeLine="1" fill="#F1F1F1" height="129.4844" id="Project" rx="2.5" ry="2.5" style="stroke:#181818;stroke-width:0.5;" width="287.0918" x="501.69" y="7"/><ellipse cx="616.7593" cy="23" fill="#ADD1B2" rx="11" ry="11" style="stroke:#181818;stroke-width:1.0;"/><path d="M619.7281,28.6406 Q619.15,28.9375 618.5093,29.0781 Q617.8687,29.2344 617.1656,29.2344 Q614.6656,29.2344 613.3375,27.5938 Q612.025,25.9375 612.025,22.8125 Q612.025,19.6875 613.3375,18.0313 Q614.6656,16.375 617.1656,16.375 Q617.8687,16.375 618.5093,16.5313 Q619.1656,16.6875 619.7281,16.9844 L619.7281,19.7031 Q619.1031,19.125 618.5093,18.8594 Q617.9156,18.5781 617.2906,18.5781 Q615.9468,18.5781 615.2593,19.6563 Q614.5718,20.7188 614.5718,22.8125 Q614.5718,24.9063 615.2593,25.9844 Q615.9468,27.0469 617.2906,27.0469 Q617.9156,27.0469 618.5093,26.7813 Q619.1031,26.5 619.7281,25.9219 L619.7281,28.6406 Z " fill="#000000"/><text fill="#000000" font-family="sans-serif" font-size="14" lengthAdjust="spacing" textLength="48.4531" x="637.2593" y="27.8467">Project</text><line style="stroke:#181818;stroke-width:0.5;" x1="502.69" x2="787.7818" y1="39" y2="39"/><text fill="#000000" font-family="sans-serif" font-size="14" lengthAdjust="spacing" textLength="250.4141" x="507.69" y="55.9951">vector&lt;Document*&gt; m_documents</text><text fill="#000000" font-family="sans-serif" font-size="14" lengthAdjust="spacing" textLength="275.0918" x="507.69" y="72.292">hash&lt;type, Lsp::CLient*&gt; m_lspClients</text><line style="stroke:#181818;stroke-width:0.5;" x1="502.69" x2="787.7818" y1="79.5938" y2="79.5938"/><text fill="#000000" font-family="sans-serif" font-size="14" lengthAdjust="spacing" textLength="139.2139" x="507.69" y="96.5889">bool setRoot(string)</text><text fill="#000000" font-family="sans-serif" font-size="14" lengthAdjust="spacing" textLength="170.0303" x="507.69" y="112.8857">Document* open(string)</text><text fill="#000000" font-family="sans-serif" font-size="14" lengthAdjust="spacing" textLength="158.0811" x="507.69" y="129.1826">Document* get(string)</text></g><!--class Document--><g id="elem_Document"><rect codeLine="8" fill="#F1F1F1" height="113.1875" id="Document" rx="2.5" ry="2.5" style="stroke:#181818;stroke-width:0.5;" width="147.1123" x="413.68" y="196.48"/><ellipse cx="447.8424" cy="212.48" fill="#A9DCDF" rx="11" ry="11" style="stroke:#181818;stroke-width:1.0;"/><path d="M447.9517,207.8238 L446.7955,212.9019 L449.1236,212.9019 L447.9517,207.8238 Z M446.4674,205.5894 L449.4517,205.5894 L452.8111,217.98 L450.358,217.98 L449.5924,214.9175 L446.3111,214.9175 L445.5611,217.98 L443.1236,217.98 L446.4674,205.5894 Z " fill="#000000"/><text fill="#000000" font-family="sans-serif" font-size="14" font-style="italic" lengthAdjust="spacing" textLength="72.5293" x="466.1007" y="217.3267">Document</text><line style="stroke:#181818;stroke-width:0.5;" x1="414.68" x2="559.7923" y1="228.48" y2="228.48"/><line style="stroke:#181818;stroke-width:0.5;" x1="414.68" x2="559.7923" y1="236.48" y2="236.48"/><text fill="#000000" font-family="sans-serif" font-size="14" lengthAdjust="spacing" textLength="115.3906" x="419.68" y="253.4751">bool load(string)</text><text fill="#000000" font-family="sans-serif" font-size="14" lengthAdjust="spacing" textLength="78.0527" x="419.68" y="269.772">bool save()</text><text fill="#000000" font-family="sans-serif" font-size="14" lengthAdjust="spacing" textLength="135.1123" x="419.68" y="286.0689">bool saveAs(string)</text><text fill="#000000" font-family="sans-serif" font-size="14" lengthAdjust="spacing" textLength="81.0605" x="419.68" y="302.3657">void close()</text></g><!--class TextDocument--><g id="elem_TextDocument"><rect codeLine="14" fill="#F1F1F1" height="96.8906" id="TextDocument" rx="2.5" ry="2.5" style="stroke:#181818;stroke-width:0.5;" width="210.4678" x="7" y="369.67"/><ellipse cx="56.2495" cy="385.67" fill="#ADD1B2" rx="11" ry="11" style="stroke:#181818;stroke-width:1.0;"/><path d="M59.2183,391.3106 Q58.6401,391.6075 57.9995,391.7481 Q57.3589,391.9044 56.6558,391.9044 Q54.1558,391.9044 52.8276,390.2637 Q51.5151,388.6075 51.5151,385.4825 Q51.5151,382.3575 52.8276,380.7012 Q54.1558,379.045 56.6558,379.045 Q57.3589,379.045 57.9995,379.2012 Q58.6558,379.3575 59.2183,379.6544 L59.2183,382.3731 Q58.5933,381.795 57.9995,381.5294 Q57.4058,381.2481 56.7808,381.2481 Q55.437,381.2481 54.7495,382.3262 Q54.062,383.3887 54.062,385.4825 Q54.062,387.5762 54.7495,388.6544 Q55.437,389.7169 56.7808,389.7169 Q57.4058,389.7169 57.9995,389.4512 Q58.5933,389.17 59.2183,388.5919 L59.2183,391.3106 Z " fill="#000000"/><text fill="#000000" font-family="sans-serif" font-size="14" lengthAdjust="spacing" textLength="103.4688" x="76.7495" y="390.5167">TextDocument</text><line style="stroke:#181818;stroke-width:0.5;" x1="8" x2="216.4678" y1="401.67" y2="401.67"/><text fill="#000000" font-family="sans-serif" font-size="14" lengthAdjust="spacing" textLength="198.4678" x="13" y="418.6651">QPlainTextEdit m_document</text><line style="stroke:#181818;stroke-width:0.5;" x1="8" x2="216.4678" y1="425.9669" y2="425.9669"/><text fill="#000000" font-family="sans-serif" font-size="14" lengthAdjust="spacing" textLength="83.4395" x="13" y="442.962">string text()</text><text fill="#000000" font-family="sans-serif" font-size="14" lengthAdjust="spacing" textLength="135.7959" x="13" y="459.2589">string currentLine()</text></g><!--class UiDocument--><g id="elem_UiDocument"><rect codeLine="19" fill="#F1F1F1" height="48" id="UiDocument" rx="2.5" ry="2.5" style="stroke:#181818;stroke-width:0.5;" width="118.666" x="252.9" y="394.12"/><ellipse cx="267.9" cy="410.12" fill="#ADD1B2" rx="11" ry="11" style="stroke:#181818;stroke-width:1.0;"/><path d="M270.8688,415.7606 Q270.2906,416.0575 269.65,416.1981 Q269.0094,416.3544 268.3063,416.3544 Q265.8063,416.3544 264.4781,414.7138 Q263.1656,413.0575 263.1656,409.9325 Q263.1656,406.8075 264.4781,405.1513 Q265.8063,403.495 268.3063,403.495 Q269.0094,403.495 269.65,403.6513 Q270.3063,403.8075 270.8688,404.1044 L270.8688,406.8231 Q270.2438,406.245 269.65,405.9794 Q269.0563,405.6981 268.4313,405.6981 Q267.0875,405.6981 266.4,406.7763 Q265.7125,407.8388 265.7125,409.9325 Q265.7125,412.0263 266.4,413.1044 Q267.0875,414.1669 268.4313,414.1669 Q269.0563,414.1669 269.65,413.9013 Q270.2438,413.62 270.8688,413.0419 L270.8688,415.7606 Z " fill="#000000"/><text fill="#000000" font-family="sans-serif" font-size="14" lengthAdjust="spacing" textLength="86.666" x="281.9" y="414.9667">UiDocument</text><line style="stroke:#181818;stroke-width:0.5;" x1="253.9" x2="370.566" y1="426.12" y2="426.12"/><line style="stroke:#181818;stroke-width:0.5;" x1="253.9" x2="370.566" y1="434.12" y2="434.12"/></g><!--class RcDocument--><g id="elem_RcDocument"><rect codeLine="20" fill="#F1F1F1" height="64.2969" id="RcDocument" rx="2.5" ry="2.5" style="stroke:#181818;stroke-width:0.5;" width="161.6182" x="406.42" y="385.97"/><ellipse cx="439.2688" cy="401.97" fill="#ADD1B2" rx="11" ry="11" style="stroke:#181818;stroke-width:1.0;"/><path d="M442.2376,407.6106 Q441.6595,407.9075 441.0188,408.0481 Q440.3782,408.2044 439.6751,408.2044 Q437.1751,408.2044 435.847,406.5637 Q434.5345,404.9075 434.5345,401.7825 Q434.5345,398.6575 435.847,397.0012 Q437.1751,395.345 439.6751,395.345 Q440.3782,395.345 441.0188,395.5012 Q441.6751,395.6575 442.2376,395.9544 L442.2376,398.6731 Q441.6126,398.095 441.0188,397.8294 Q440.4251,397.5481 439.8001,397.5481 Q438.4563,397.5481 437.7688,398.6262 Q437.0813,399.6887 437.0813,401.7825 Q437.0813,403.8762 437.7688,404.9544 Q438.4563,406.0169 439.8001,406.0169 Q440.4251,406.0169 441.0188,405.7512 Q441.6126,405.47 442.2376,404.8919 L442.2376,407.6106 Z " fill="#000000"/><text fill="#000000" font-family="sans-serif" font-size="14" lengthAdjust="spacing" textLength="89.9541" x="457.2352" y="406.8167">RcDocument</text><line style="stroke:#181818;stroke-width:0.5;" x1="407.42" x2="567.0382" y1="417.97" y2="417.97"/><text fill="#000000" font-family="sans-serif" font-size="14" lengthAdjust="spacing" textLength="149.6182" x="412.42" y="434.9651">RcCore::Data m_data</text><line style="stroke:#181818;stroke-width:0.5;" x1="407.42" x2="567.0382" y1="442.2669" y2="442.2669"/></g><!--class RcCore::Data--><g id="elem_RcCore::Data"><rect codeLine="23" fill="#F1F1F1" height="48" id="RcCore::Data" rx="2.5" ry="2.5" style="stroke:#181818;stroke-width:0.5;" width="124.9961" x="424.74" y="559.16"/><ellipse cx="439.74" cy="575.16" fill="#ADD1B2" rx="11" ry="11" style="stroke:#181818;stroke-width:1.0;"/><path d="M442.7088,580.8006 Q442.1306,581.0975 441.49,581.2381 Q440.8494,581.3944 440.1463,581.3944 Q437.6463,581.3944 436.3181,579.7538 Q435.0056,578.0975 435.0056,574.9725 Q435.0056,571.8475 436.3181,570.1913 Q437.6463,568.535 440.1463,568.535 Q440.8494,568.535 441.49,568.6913 Q442.1463,568.8475 442.7088,569.1444 L442.7088,571.8631 Q442.0838,571.285 441.49,571.0194 Q440.8963,570.7381 440.2713,570.7381 Q438.9275,570.7381 438.24,571.8163 Q437.5525,572.8788 437.5525,574.9725 Q437.5525,577.0663 438.24,578.1444 Q438.9275,579.2069 440.2713,579.2069 Q440.8963,579.2069 441.49,578.9413 Q442.0838,578.66 442.7088,578.0819 L442.7088,580.8006 Z " fill="#000000"/><text fill="#000000" font-family="sans-serif" font-size="14" lengthAdjust="spacing" textLength="92.9961" x="453.74" y="580.0067">RcCore::Data</text><line style="stroke:#181818;stroke-width:0.5;" x1="425.74" x2="548.7361" y1="591.16" y2="591.16"/><line style="stroke:#181818;stroke-width:0.5;" x1="425.74" x2="548.7361" y1="599.16" y2="599.16"/></g><!--class ImageDocument--><g id="elem_ImageDocument"><rect codeLine="24" fill="#F1F1F1" height="48" id="ImageDocument" rx="2.5" ry="2.5" style="stroke:#181818;stroke-width:0.5;" width="148.375" x="603.05" y="394.12"/><ellipse cx="618.05" cy="410.12" fill="#ADD1B2" rx="11" ry="11" style="stroke:#181818;stroke-width:1.0;"/><path d="M621.0188,415.7606 Q620.4406,416.0575 619.8,416.1981 Q619.1594,416.3544 618.4563,416.3544 Q615.9563,416.3544 614.6281,414.7138 Q613.3156,413.0575 613.3156,409.9325 Q613.3156,406.8075 614.6281,405.1513 Q615.9563,403.495 618.4563,403.495 Q619.1594,403.495 619.8,403.6513 Q620.4563,403.8075 621.0188,404.1044 L621.0188,406.8231 Q620.3938,406.245 619.8,405.9794 Q619.2063,405.6981 618.5813,405.6981 Q617.2375,405.6981 616.55,406.7763 Q615.8625,407.8388 615.8625,409.9325 Q615.8625,412.0263 616.55,413.1044 Q617.2375,414.1669 618.5813,414.1669 Q619.2063,414.1669 619.8,413.9013 Q620.3938,413.62 621.0188,413.0419 L621.0188,415.7606 Z " fill="#000000"/><text fill="#000000" font-family="sans-serif" font-size="14" lengthAdjust="spacing" textLength="116.375" x="632.05" y="414.9667">ImageDocument</text><line style="stroke:#181818;stroke-width:0.5;" x1="604.05" x2="750.425" y1="426.12" y2="426.12"/><line style="stroke:#181818;stroke-width:0.5;" x1="604.05" x2="750.425" y1="434.12" y2="434.12"/></g><!--class CodeDocument--><g id="elem_CodeDocument"><rect codeLine="25" fill="#F1F1F1" height="113.1875" id="CodeDocument" rx="2.5" ry="2.5" style="stroke:#181818;stroke-width:0.5;" width="272.9141" x="46.78" y="526.56"/><ellipse cx="124.802" cy="542.56" fill="#ADD1B2" rx="11" ry="11" style="stroke:#181818;stroke-width:1.0;"/><path d="M127.7707,548.2006 Q127.1926,548.4975 126.552,548.6381 Q125.9113,548.7944 125.2082,548.7944 Q122.7082,548.7944 121.3801,547.1538 Q120.0676,545.4975 120.0676,542.3725 Q120.0676,539.2475 121.3801,537.5913 Q122.7082,535.935 125.2082,535.935 Q125.9113,535.935 126.552,536.0913 Q127.2082,536.2475 127.7707,536.5444 L127.7707,539.2631 Q127.1457,538.685 126.552,538.4194 Q125.9582,538.1381 125.3332,538.1381 Q123.9895,538.1381 123.302,539.2163 Q122.6145,540.2788 122.6145,542.3725 Q122.6145,544.4663 123.302,545.5444 Q123.9895,546.6069 125.3332,546.6069 Q125.9582,546.6069 126.552,546.3413 Q127.1457,546.06 127.7707,545.4819 L127.7707,548.2006 Z " fill="#000000"/><text fill="#000000" font-family="sans-serif" font-size="14" lengthAdjust="spacing" textLength="108.3701" x="145.302" y="547.4067">CodeDocument</text><line style="stroke:#181818;stroke-width:0.5;" x1="47.78" x2="318.6941" y1="558.56" y2="558.56"/><text fill="#000000" font-family="sans-serif" font-size="14" lengthAdjust="spacing" textLength="144.4844" x="52.78" y="575.5551">Lsp::Client* m_client</text><text fill="#000000" font-family="sans-serif" font-size="14" lengthAdjust="spacing" textLength="260.9141" x="52.78" y="591.852">TreeSitterHelper *m_treeSitterHelper</text><line style="stroke:#181818;stroke-width:0.5;" x1="47.78" x2="318.6941" y1="599.1538" y2="599.1538"/><text fill="#000000" font-family="sans-serif" font-size="14" lengthAdjust="spacing" textLength="193.2451" x="52.78" y="616.1489">vector&lt;Symbol&gt; symbols()</text><text fill="#000000" font-family="sans-serif" font-size="14" lengthAdjust="spacing" textLength="249.1084" x="52.78" y="632.4457">vector&lt;QueryMatch&gt; query(string)</text></g><!--class CppDocument--><g id="elem_CppDocument"><rect codeLine="31" fill="#F1F1F1" height="80.5938" id="CppDocument" rx="2.5" ry="2.5" style="stroke:#181818;stroke-width:0.5;" width="268.7578" x="48.86" y="707.9"/><ellipse cx="128.9498" cy="723.9" fill="#ADD1B2" rx="11" ry="11" style="stroke:#181818;stroke-width:1.0;"/><path d="M131.9186,729.5406 Q131.3405,729.8375 130.6998,729.9781 Q130.0592,730.1344 129.3561,730.1344 Q126.8561,730.1344 125.528,728.4938 Q124.2155,726.8375 124.2155,723.7125 Q124.2155,720.5875 125.528,718.9313 Q126.8561,717.275 129.3561,717.275 Q130.0592,717.275 130.6998,717.4313 Q131.3561,717.5875 131.9186,717.8844 L131.9186,720.6031 Q131.2936,720.025 130.6998,719.7594 Q130.1061,719.4781 129.4811,719.4781 Q128.1373,719.4781 127.4498,720.5563 Q126.7623,721.6188 126.7623,723.7125 Q126.7623,725.8063 127.4498,726.8844 Q128.1373,727.9469 129.4811,727.9469 Q130.1061,727.9469 130.6998,727.6813 Q131.2936,727.4 131.9186,726.8219 L131.9186,729.5406 Z " fill="#000000"/><text fill="#000000" font-family="sans-serif" font-size="14" lengthAdjust="spacing" textLength="100.0781" x="149.4498" y="728.7467">CppDocument</text><line style="stroke:#181818;stroke-width:0.5;" x1="49.86" x2="316.6178" y1="739.9" y2="739.9"/><line style="stroke:#181818;stroke-width:0.5;" x1="49.86" x2="316.6178" y1="747.9" y2="747.9"/><text fill="#000000" font-family="sans-serif" font-size="14" lengthAdjust="spacing" textLength="107.4404" x="54.86" y="764.8951">bool isHeader()</text><text fill="#000000" font-family="sans-serif" font-size="14" lengthAdjust="spacing" textLength="256.7578" x="54.86" y="781.192">CppDocument* openHeaderSource()</text></g><!--class Lsp::Client--><g id="elem_Lsp::Client"><rect codeLine="35" fill="#F1F1F1" height="96.8906" id="Lsp::Client" rx="2.5" ry="2.5" style="stroke:#181818;stroke-width:0.5;" width="207.3984" x="491.53" y="699.75"/><ellipse cx="554.0071" cy="715.75" fill="#ADD1B2" rx="11" ry="11" style="stroke:#181818;stroke-width:1.0;"/><path d="M556.9758,721.3906 Q556.3977,721.6875 555.7571,721.8281 Q555.1164,721.9844 554.4133,721.9844 Q551.9133,721.9844 550.5852,720.3438 Q549.2727,718.6875 549.2727,715.5625 Q549.2727,712.4375 550.5852,710.7813 Q551.9133,709.125 554.4133,709.125 Q555.1164,709.125 555.7571,709.2813 Q556.4133,709.4375 556.9758,709.7344 L556.9758,712.4531 Q556.3508,711.875 555.7571,711.6094 Q555.1633,711.3281 554.5383,711.3281 Q553.1946,711.3281 552.5071,712.4063 Q551.8196,713.4688 551.8196,715.5625 Q551.8196,717.6563 552.5071,718.7344 Q553.1946,719.7969 554.5383,719.7969 Q555.1633,719.7969 555.7571,719.5313 Q556.3508,719.25 556.9758,718.6719 L556.9758,721.3906 Z " fill="#000000"/><text fill="#000000" font-family="sans-serif" font-size="14" lengthAdjust="spacing" textLength="73.9443" x="574.5071" y="720.5967">Lsp::Client</text><line style="stroke:#181818;stroke-width:0.5;" x1="492.53" x2="697.9284" y1="731.75" y2="731.75"/><line style="stroke:#181818;stroke-width:0.5;" x1="492.53" x2="697.9284" y1="739.75" y2="739.75"/><text fill="#000000" font-family="sans-serif" font-size="14" lengthAdjust="spacing" textLength="168.5811" x="497.53" y="756.7451">void openProject(string)</text><text fill="#000000" font-family="sans-serif" font-size="14" lengthAdjust="spacing" textLength="169.7021" x="497.53" y="773.042">void closeProject(string)</text><text fill="#000000" font-family="sans-serif" font-size="14" lengthAdjust="spacing" textLength="195.3984" x="497.53" y="789.3389">Result documentSymbol(...)</text></g><!--reverse link Project to Document--><g id="link_Project_Document"><path codeLine="41" d="M580.7083,145.9849 C563.7083,165.2849 553.13,177.29 536.63,196.01 " fill="none" id="Project-backto-Document" style="stroke:#181818;stroke-width:1.0;"/><polygon fill="none" points="588.64,136.98,581.6725,138.8385,580.7083,145.9849,587.6757,144.1263,588.64,136.98" style="stroke:#181818;stroke-width:1.0;"/></g><!--reverse link Document to TextDocument--><g id="link_Document_TextDocument"><path codeLine="42" d="M397.0832,293.2682 C341.2032,317.5682 280.11,344.13 217.65,371.29 " fill="none" id="Document-backto-TextDocument" style="stroke:#181818;stroke-width:1.0;"/><polygon fill="none" points="413.59,286.09,394.6905,287.7659,399.4759,298.7704,413.59,286.09" style="stroke:#181818;stroke-width:1.0;"/></g><!--reverse link Document to UiDocument--><g id="link_Document_UiDocument"><path codeLine="43" d="M414.3302,322.0002 C383.4402,350.7802 360.56,372.09 337.12,393.94 " fill="none" id="Document-backto-UiDocument" style="stroke:#181818;stroke-width:1.0;"/><polygon fill="none" points="427.5,309.73,410.2402,317.6103,418.4203,326.3901,427.5,309.73" style="stroke:#181818;stroke-width:1.0;"/></g><!--reverse link Document to RcDocument--><g id="link_Document_RcDocument"><path codeLine="44" d="M487.23,327.73 C487.23,353.19 487.23,364.41 487.23,385.93 " fill="none" id="Document-backto-RcDocument" style="stroke:#181818;stroke-width:1.0;"/><polygon fill="none" points="487.23,309.73,481.23,327.73,493.23,327.73,487.23,309.73" style="stroke:#181818;stroke-width:1.0;"/></g><!--reverse link RcDocument to RcCore::Data--><g id="link_RcDocument_RcCore::Data"><path codeLine="45" d="M487.23,462.55 C487.23,494.2 487.23,530.29 487.23,558.73 " fill="none" id="RcDocument-backto-RcCore::Data" style="stroke:#181818;stroke-width:1.0;"/><polygon fill="none" points="487.23,450.55,483.23,456.55,487.23,462.55,491.23,456.55,487.23,450.55" style="stroke:#181818;stroke-width:1.0;"/></g><!--reverse link Document to ImageDocument--><g id="link_Document_ImageDocument"><path codeLine="46" d="M566.0191,321.683 C599.5291,350.443 624.91,372.22 650.3,394 " fill="none" id="Document-backto-ImageDocument" style="stroke:#181818;stroke-width:1.0;"/><polygon fill="none" points="552.36,309.96,562.1115,326.236,569.9268,317.1299,552.36,309.96" style="stroke:#181818;stroke-width:1.0;"/></g><!--reverse link TextDocument to CodeDocument--><g id="link_TextDocument_CodeDocument"><path codeLine="47" d="M140.151,483.2112 C148.261,501.8212 150.42,506.8 158.85,526.15 " fill="none" id="TextDocument-backto-CodeDocument" style="stroke:#181818;stroke-width:1.0;"/><polygon fill="none" points="132.96,466.71,134.6506,485.6082,145.6514,480.8142,132.96,466.71" style="stroke:#181818;stroke-width:1.0;"/></g><!--reverse link CodeDocument to CppDocument--><g id="link_CodeDocument_CppDocument"><path codeLine="48" d="M183.23,657.81 C183.23,680.04 183.23,687.14 183.23,707.47 " fill="none" id="CodeDocument-backto-CppDocument" style="stroke:#181818;stroke-width:1.0;"/><polygon fill="none" points="183.23,639.81,177.23,657.81,189.23,657.81,183.23,639.81" style="stroke:#181818;stroke-width:1.0;"/></g><!--reverse link Project to Lsp::Client--><g id="link_Project_Lsp::Client"><path codeLine="49" d="M695.6242,147.0968 C743.4742,224.7668 802.57,349.54 769.23,466.56 C743.48,556.98 679.31,646.72 636.52,699.55 " fill="none" id="Project-backto-Lsp::Client" style="stroke:#181818;stroke-width:1.0;"/><polygon fill="none" points="689.33,136.88,689.0715,144.0865,695.6242,147.0968,695.8827,139.8903,689.33,136.88" style="stroke:#181818;stroke-width:1.0;"/></g><!--reverse link CodeDocument to Lsp::Client--><g id="link_CodeDocument_Lsp::Client"><path codeLine="50" d="M331.2977,642.7466 C387.0277,664.8066 439.23,685.46 491.08,705.98 " fill="none" id="CodeDocument-backto-Lsp::Client" style="stroke:#181818;stroke-width:1.0;"/><polygon fill="#181818" points="320.14,638.33,324.2466,644.2575,331.2977,642.7466,327.191,636.8191,320.14,638.33" style="stroke:#181818;stroke-width:1.0;"/></g><!--SRC=[RLBRRi8m37tFL-IHLHiVK26a2IOnYKbGs3CAgGMPqhfBKZIqyUzBUiEfU8hZOnzVZgKMrlADmI-GZl-oYt_Gp9Oewm9AbynvSSYxZsLdOSypTwtWcQzjbQQBjUg3jAqMMZLHHqJDBRWCqKsiCweyFR61aMC5vGFt2Ux1DoQEtXQ-9Taqs8Vv3XjsZI8VejjwuW8JOh_Q0R-WoZqFsX1mOotZ7duSOTrkj51bSBxbof6XMSl2dOTyUlUJjJ4UNAkISdwgdh5pP9AKoEG23QJfKZWH2lXdoAHOvteln0b6V0lCWJ2s6ZHRJpoZR2osDm0xvHoO5UWA34-AWnlvUfrtr-A8Uivjyre_ImTiQp3N3-7aUSw_WqsqwNgfgh4gogv0v60y3K5RnLjaXxMHT6LaX71zGQaGtHta0md7I0QsrextShK3JQRJQQZ1-iF6bvVXXeQRuxC_xwQ7C8A8dZ5mrvKHYR51Y91nKYneT7yDJiLbaT8jVDzeD1RPO9oLnE0_]--></g></svg>